<svg xmlns="http://www.w3.org/2000/svg" viewBox="0 0 10.87 41.59"><defs><style>.cls-1{fill:#00a0dd;}</style></defs><title>bolt</title><g id="Layer_2" data-name="Layer 2"><g id="Layer_3" data-name="Layer 3"><path class="cls-1" d="M2.88,25.46c-.14,1.39-.28,2.73-.41,4.06l-.42,4c-.14,1.34-.27,2.68-.42,4s-.4,3.9-.38,4c2.52-7.11,5-14.2,7.58-21.34-.76.26-1.49.52-2.26.77.17-.58.32-1.11.46-1.64l.45-1.58.45-1.59.45-1.57.45-1.59.45-1.59c.15-.52.3-1,.45-1.61L9.08,10l-.63.18a6,6,0,0,1-.64.17l.52-1.76.51-1.72c.17-.57.33-1.15.5-1.72S9.69,4,9.86,3.45l.51-1.72c.16-.57.34-1.13.5-1.73h-.08L9.61.27,8.05.61,6.49,1l-1.74.37L3,1.71l-1.72.37c-.11,0-.11,0-.13.21,0,.43-.07.87-.11,1.3L.87,5.74C.8,6.47.74,7.19.68,7.91L.47,10.39.26,12.86c-.07.82-.15,1.65-.22,2.47,0,.18,0,.36,0,.56l1-.41c.33-.12.66-.28,1-.39L.74,26.4Z"/><path class="cls-1" d="M2.88,25.46c-.14,1.39-.28,2.73-.41,4.06l-.42,4c-.14,1.34-.27,2.68-.42,4s-.4,3.9-.38,4c2.52-7.11,5-14.2,7.58-21.34-.76.26-1.49.52-2.26.77.17-.58.32-1.11.46-1.64l.45-1.58.45-1.59.45-1.57.45-1.59.45-1.59c.15-.52.3-1,.45-1.61L9.08,10l-.63.18a6,6,0,0,1-.64.17l.52-1.76.51-1.72c.17-.57.33-1.15.5-1.72S9.69,4,9.86,3.45l.51-1.72c.16-.57.34-1.13.5-1.73h-.08L9.61.27,8.05.61,6.49,1l-1.74.37L3,1.71l-1.72.37c-.11,0-.11,0-.13.21,0,.43-.07.87-.11,1.3L.87,5.74C.8,6.47.74,7.19.68,7.91L.47,10.39.26,12.86c-.07.82-.15,1.65-.22,2.47,0,.18,0,.36,0,.56l1-.41c.33-.12.66-.28,1-.39L.74,26.4Z"/></g></g></svg>