<svg xmlns="http://www.w3.org/2000/svg" viewBox="0 0 371.43 42.16"><defs><style>.cls-1{fill:#00a0dd;}</style></defs><title>Logo</title><g id="Layer_2" data-name="Layer 2"><g id="Layer_3" data-name="Layer 3"><path class="cls-1" d="M29.52,27.58h9.62V39.72A26.25,26.25,0,0,1,28.64,42q-7.12,0-11.37-4.15A13.76,13.76,0,0,1,13,27.62a14.23,14.23,0,0,1,4.41-10.68,15.23,15.23,0,0,1,11-4.27,19.53,19.53,0,0,1,4.6.53,36.18,36.18,0,0,1,5.49,1.91V19.3a20.1,20.1,0,0,0-10.17-3,10.82,10.82,0,0,0-7.92,3.2,10.67,10.67,0,0,0-3.22,7.86,10.59,10.59,0,0,0,3.22,8,11.45,11.45,0,0,0,8.29,3.1,19.46,19.46,0,0,0,5.89-1.13L35,37.2v-6H29.52Z"/><path class="cls-1" d="M67.89,13h3.9V41.69H68.26L49.1,19.63V41.69H45.25V13h3.32L67.89,35.29Z"/><path class="cls-1" d="M78,13h4.1V41.69H78Z"/><path class="cls-1" d="M86,13h23.93v3.65h-10v25H95.8v-25H86Z"/><path class="cls-1" d="M113.79,13H130v3.65H117.89v8.74h11.73V29.1H117.89V38h12.53v3.65H113.79Z"/><path class="cls-1" d="M188.08,32.2v6.44a30.5,30.5,0,0,1-14.88,3.52,23,23,0,0,1-11.63-2.75A20.32,20.32,0,0,1,154,31.82a20.55,20.55,0,0,1-2.78-10.46,20,20,0,0,1,6.37-15A21.89,21.89,0,0,1,173.32.24,36.94,36.94,0,0,1,187.64,3.6V9.9a28.22,28.22,0,0,0-14-4.1,16.24,16.24,0,0,0-11.68,4.44,14.77,14.77,0,0,0-4.64,11.12,14.58,14.58,0,0,0,4.57,11.07,16.3,16.3,0,0,0,11.69,4.34A26.47,26.47,0,0,0,188.08,32.2Z"/><path class="cls-1" d="M213.87,13H218V29.3a19.4,19.4,0,0,1-.48,5,10.91,10.91,0,0,1-1.19,2.8,9.12,9.12,0,0,1-1.73,2,15.16,15.16,0,0,1-17.89,0,9.46,9.46,0,0,1-1.73-2,10.7,10.7,0,0,1-1.17-2.74,20.2,20.2,0,0,1-.46-5.09V13h4.12V29.3q0,4.05.93,5.62a6.53,6.53,0,0,0,2.81,2.54,9.8,9.8,0,0,0,4.45.95,9,9,0,0,0,5.94-1.91,5.91,5.91,0,0,0,1.75-2.42,15.07,15.07,0,0,0,.53-4.78Z"/><path class="cls-1" d="M223.79,41.69V13H231a10.38,10.38,0,0,1,6.9,2.15A7.22,7.22,0,0,1,240.43,21a7.15,7.15,0,0,1-4.84,7.05,13.14,13.14,0,0,1,2.68,2.46A48.74,48.74,0,0,1,242,36q1.5,2.45,2.4,3.67l1.52,2H241l-1.25-1.89c0-.07-.12-.18-.24-.35l-.8-1.12-1.27-2.1L236.07,34a22.34,22.34,0,0,0-2.33-2.81,9,9,0,0,0-1.91-1.51,6.56,6.56,0,0,0-2.87-.46H227.9V41.69Zm5.34-25.16H227.9v9h1.56a11.69,11.69,0,0,0,4.27-.53,4,4,0,0,0,1.81-1.61,4.69,4.69,0,0,0,.64-2.45,4.37,4.37,0,0,0-.72-2.45,3.8,3.8,0,0,0-2-1.55A14.51,14.51,0,0,0,229.13,16.53Z"/><path class="cls-1" d="M249.08,13h4.1V41.69h-4.1Z"/><path class="cls-1" d="M273.6,12.63a15.37,15.37,0,0,1,11,4.21,13.91,13.91,0,0,1,4.42,10.54,13.74,13.74,0,0,1-4.46,10.49A15.86,15.86,0,0,1,273.37,42a15,15,0,0,1-10.79-4.15,13.87,13.87,0,0,1-4.31-10.41,14.16,14.16,0,0,1,4.34-10.62A15.14,15.14,0,0,1,273.6,12.63Zm.16,3.9a11.11,11.11,0,0,0-8.08,3.07,10.49,10.49,0,0,0-3.17,7.86,10.28,10.28,0,0,0,3.18,7.71,11.78,11.78,0,0,0,15.95-.06,10.49,10.49,0,0,0,3.21-7.82,10.26,10.26,0,0,0-3.21-7.66A10.89,10.89,0,0,0,273.76,16.53Z"/><path class="cls-1" d="M301.21,29.69l-3.12-1.9a14.27,14.27,0,0,1-4.17-3.52,6.68,6.68,0,0,1-1.24-4,7,7,0,0,1,2.35-5.5,8.8,8.8,0,0,1,6.1-2.11,11.48,11.48,0,0,1,6.58,2v4.65a9.5,9.5,0,0,0-6.66-3,5.51,5.51,0,0,0-3.3.93,2.82,2.82,0,0,0-1.3,2.38,3.65,3.65,0,0,0,1,2.41,11.71,11.71,0,0,0,3.06,2.36l3.13,1.86q5.23,3.12,5.24,8a7.32,7.32,0,0,1-2.31,5.6,8.43,8.43,0,0,1-6,2.15,12.64,12.64,0,0,1-7.74-2.61V34.2q3.33,4.21,7.69,4.21a4.84,4.84,0,0,0,3.21-1.07A3.36,3.36,0,0,0,305,34.65C305,32.91,303.73,31.25,301.21,29.69Z"/><path class="cls-1" d="M313.39,13h4.11V41.69h-4.11Z"/><path class="cls-1" d="M321.41,13h23.93v3.65h-10v25h-4.12v-25h-9.83Z"/><path class="cls-1" d="M366.45,13h5l-10.58,13.5V41.69h-4.21V26.54L346.06,13H351l7.67,9.88Z"/><path class="cls-1" d="M2.88,25.46c-.14,1.39-.28,2.73-.41,4.06l-.42,4c-.14,1.34-.27,2.68-.42,4s-.4,3.9-.38,4c2.52-7.11,5-14.2,7.58-21.34-.76.26-1.49.52-2.26.77.17-.58.32-1.11.46-1.64l.45-1.58.45-1.59.45-1.57.45-1.59.45-1.59c.15-.52.3-1,.45-1.61L9.08,10l-.63.18a6,6,0,0,1-.64.17l.52-1.76.51-1.72c.17-.57.33-1.15.5-1.72S9.69,4,9.86,3.45l.51-1.72c.16-.57.34-1.13.5-1.73h-.08L9.61.27,8.05.61,6.49,1l-1.74.37L3,1.71l-1.72.37c-.11,0-.11,0-.13.21,0,.43-.07.87-.11,1.3L.87,5.74C.8,6.47.74,7.19.68,7.91L.47,10.39.26,12.86c-.07.82-.15,1.65-.22,2.47,0,.18,0,.36,0,.56l1-.41c.33-.12.66-.28,1-.39L.74,26.4Z"/><path class="cls-1" d="M29.52,27.58h9.62V39.72A26.25,26.25,0,0,1,28.64,42q-7.12,0-11.37-4.15A13.76,13.76,0,0,1,13,27.62a14.23,14.23,0,0,1,4.41-10.68,15.23,15.23,0,0,1,11-4.27,19.53,19.53,0,0,1,4.6.53,36.18,36.18,0,0,1,5.49,1.91V19.3a20.1,20.1,0,0,0-10.17-3,10.82,10.82,0,0,0-7.92,3.2,10.67,10.67,0,0,0-3.22,7.86,10.59,10.59,0,0,0,3.22,8,11.45,11.45,0,0,0,8.29,3.1,19.46,19.46,0,0,0,5.89-1.13L35,37.2v-6H29.52Z"/><path class="cls-1" d="M67.89,13h3.9V41.69H68.26L49.1,19.63V41.69H45.25V13h3.32L67.89,35.29Z"/><path class="cls-1" d="M78,13h4.1V41.69H78Z"/><path class="cls-1" d="M86,13h23.93v3.65h-10v25H95.8v-25H86Z"/><path class="cls-1" d="M113.79,13H130v3.65H117.89v8.74h11.73V29.1H117.89V38h12.53v3.65H113.79Z"/><path class="cls-1" d="M188.08,32.2v6.44a30.5,30.5,0,0,1-14.88,3.52,23,23,0,0,1-11.63-2.75A20.32,20.32,0,0,1,154,31.82a20.55,20.55,0,0,1-2.78-10.46,20,20,0,0,1,6.37-15A21.89,21.89,0,0,1,173.32.24,36.94,36.94,0,0,1,187.64,3.6V9.9a28.22,28.22,0,0,0-14-4.1,16.24,16.24,0,0,0-11.68,4.44,14.77,14.77,0,0,0-4.64,11.12,14.58,14.58,0,0,0,4.57,11.07,16.3,16.3,0,0,0,11.69,4.34A26.47,26.47,0,0,0,188.08,32.2Z"/><path class="cls-1" d="M213.87,13H218V29.3a19.4,19.4,0,0,1-.48,5,10.91,10.91,0,0,1-1.19,2.8,9.12,9.12,0,0,1-1.73,2,15.16,15.16,0,0,1-17.89,0,9.46,9.46,0,0,1-1.73-2,10.7,10.7,0,0,1-1.17-2.74,20.2,20.2,0,0,1-.46-5.09V13h4.12V29.3q0,4.05.93,5.62a6.53,6.53,0,0,0,2.81,2.54,9.8,9.8,0,0,0,4.45.95,9,9,0,0,0,5.94-1.91,5.91,5.91,0,0,0,1.75-2.42,15.07,15.07,0,0,0,.53-4.78Z"/><path class="cls-1" d="M223.79,41.69V13H231a10.38,10.38,0,0,1,6.9,2.15A7.22,7.22,0,0,1,240.43,21a7.15,7.15,0,0,1-4.84,7.05,13.14,13.14,0,0,1,2.68,2.46A48.74,48.74,0,0,1,242,36q1.5,2.45,2.4,3.67l1.52,2H241l-1.25-1.89c0-.07-.12-.18-.24-.35l-.8-1.12-1.27-2.1L236.07,34a22.34,22.34,0,0,0-2.33-2.81,9,9,0,0,0-1.91-1.51,6.56,6.56,0,0,0-2.87-.46H227.9V41.69Zm5.34-25.16H227.9v9h1.56a11.69,11.69,0,0,0,4.27-.53,4,4,0,0,0,1.81-1.61,4.69,4.69,0,0,0,.64-2.45,4.37,4.37,0,0,0-.72-2.45,3.8,3.8,0,0,0-2-1.55A14.51,14.51,0,0,0,229.13,16.53Z"/><path class="cls-1" d="M249.08,13h4.1V41.69h-4.1Z"/><path class="cls-1" d="M273.6,12.63a15.37,15.37,0,0,1,11,4.21,13.91,13.91,0,0,1,4.42,10.54,13.74,13.74,0,0,1-4.46,10.49A15.86,15.86,0,0,1,273.37,42a15,15,0,0,1-10.79-4.15,13.87,13.87,0,0,1-4.31-10.41,14.16,14.16,0,0,1,4.34-10.62A15.14,15.14,0,0,1,273.6,12.63Zm.16,3.9a11.11,11.11,0,0,0-8.08,3.07,10.49,10.49,0,0,0-3.17,7.86,10.28,10.28,0,0,0,3.18,7.71,11.78,11.78,0,0,0,15.95-.06,10.49,10.49,0,0,0,3.21-7.82,10.26,10.26,0,0,0-3.21-7.66A10.89,10.89,0,0,0,273.76,16.53Z"/><path class="cls-1" d="M301.21,29.69l-3.12-1.9a14.27,14.27,0,0,1-4.17-3.52,6.68,6.68,0,0,1-1.24-4,7,7,0,0,1,2.35-5.5,8.8,8.8,0,0,1,6.1-2.11,11.48,11.48,0,0,1,6.58,2v4.65a9.5,9.5,0,0,0-6.66-3,5.51,5.51,0,0,0-3.3.93,2.82,2.82,0,0,0-1.3,2.38,3.65,3.65,0,0,0,1,2.41,11.71,11.71,0,0,0,3.06,2.36l3.13,1.86q5.23,3.12,5.24,8a7.32,7.32,0,0,1-2.31,5.6,8.43,8.43,0,0,1-6,2.15,12.64,12.64,0,0,1-7.74-2.61V34.2q3.33,4.21,7.69,4.21a4.84,4.84,0,0,0,3.21-1.07A3.36,3.36,0,0,0,305,34.65C305,32.91,303.73,31.25,301.21,29.69Z"/><path class="cls-1" d="M313.39,13h4.11V41.69h-4.11Z"/><path class="cls-1" d="M321.41,13h23.93v3.65h-10v25h-4.12v-25h-9.83Z"/><path class="cls-1" d="M366.45,13h5l-10.58,13.5V41.69h-4.21V26.54L346.06,13H351l7.67,9.88Z"/><path class="cls-1" d="M2.88,25.46c-.14,1.39-.28,2.73-.41,4.06l-.42,4c-.14,1.34-.27,2.68-.42,4s-.4,3.9-.38,4c2.52-7.11,5-14.2,7.58-21.34-.76.26-1.49.52-2.26.77.17-.58.32-1.11.46-1.64l.45-1.58.45-1.59.45-1.57.45-1.59.45-1.59c.15-.52.3-1,.45-1.61L9.08,10l-.63.18a6,6,0,0,1-.64.17l.52-1.76.51-1.72c.17-.57.33-1.15.5-1.72S9.69,4,9.86,3.45l.51-1.72c.16-.57.34-1.13.5-1.73h-.08L9.61.27,8.05.61,6.49,1l-1.74.37L3,1.71l-1.72.37c-.11,0-.11,0-.13.21,0,.43-.07.87-.11,1.3L.87,5.74C.8,6.47.74,7.19.68,7.91L.47,10.39.26,12.86c-.07.82-.15,1.65-.22,2.47,0,.18,0,.36,0,.56l1-.41c.33-.12.66-.28,1-.39L.74,26.4Z"/></g></g></svg>