<svg xmlns="http://www.w3.org/2000/svg" xmlns:xlink="http://www.w3.org/1999/xlink" viewBox="0 0 825.1 252.54"><defs><style>.cls-1{fill:url(#linear-gradient);filter:url(#luminosity-invert);}.cls-2{mask:url(#mask);}.cls-3{fill:#29abe2;}.cls-4{fill:none;stroke:#29abe2;stroke-miterlimit:10;stroke-width:4px;}</style><linearGradient id="linear-gradient" x1="2" y1="126.27" x2="347.03" y2="126.27" gradientUnits="userSpaceOnUse"><stop offset="0" stop-color="#fff"/><stop offset="0" stop-color="#fefefe"/><stop offset="0.23" stop-color="#b2b2b2"/><stop offset="0.43" stop-color="#737373"/><stop offset="0.62" stop-color="#414141"/><stop offset="0.78" stop-color="#1e1e1e"/><stop offset="0.91" stop-color="#080808"/><stop offset="1"/></linearGradient><filter id="luminosity-invert" filterUnits="userSpaceOnUse" color-interpolation-filters="sRGB"><feColorMatrix values="-1 0 0 0 1 0 -1 0 0 1 0 0 -1 0 1 0 0 0 1 0"/></filter><mask id="mask" x="0" y="0" width="347.03" height="252.54" maskUnits="userSpaceOnUse"><path class="cls-1" d="M288,224.15l-49,28.39-49-28.39V167.38L239,139l49,28.38Zm-104-182L134,70.56v56.77l50,28.39,50-28.39V70.56Zm61,85.12,51,28.41,51-28.37,0-56.77-51-28.4L245,70.53ZM266,14.77,240.5,0,215,14.77V44.31l25.5,14.78L266,44.31Zm-112,139L128.5,139,103,153.77v29.54l25.5,14.78L154,183.31Zm-34-97L94.5,42,69,56.77V86.31l25.5,14.78L120,86.31Zm-32,97L62.5,139,37,153.77v29.54l25.5,14.78L88,183.31Zm-35-67L27.5,72,2,86.77v29.54l25.5,14.78L53,116.31Z"/></mask></defs><title>logo_1</title><g id="Layer_2" data-name="Layer 2"><g id="Layer_3" data-name="Layer 3"><path d="M395,48.14h27.87v4.51H399.52v74.46H395V52.65H371.77V48.14Z"/><path d="M453.79,54.12l21.33,51.67L477,110.3l6.89,16.81h-4.86l-7-16.81H430.66l-7,16.81h-4.85l6.88-16.81,1.92-4.51,21.32-51.67,2.37-6Zm-21.32,51.67h37.79L451.31,60Z"/><path d="M557.25,67.88a39.34,39.34,0,0,1,4.85,19.75,40.26,40.26,0,0,1-5,19.85,37.87,37.87,0,0,1-13.31,14.33,33.83,33.83,0,0,1-18.28,5.3,34.45,34.45,0,0,1-18.39-5.3,39.47,39.47,0,0,1-13.43-14.44,42.42,42.42,0,0,1,.11-39.6,38,38,0,0,1,13.32-14.33,34.55,34.55,0,0,1,36.78,0A37.4,37.4,0,0,1,557.25,67.88ZM493.39,87.63a35.26,35.26,0,0,0,9.48,24.7c6.32,6.77,13.88,10.27,22.68,10.27s16.47-3.5,22.68-10.27a35.2,35.2,0,0,0,9.36-24.7c0-9.71-3.05-17.94-9.36-24.71a29.34,29.34,0,0,0-22.68-10.27c-8.8,0-16.47,3.38-22.79,10.27A35.27,35.27,0,0,0,493.39,87.63Z"/><path d="M331.28,169.14V243.6h41.3v4.51H326.77v-79Z"/><path d="M394.57,169.14H431.8v4.51H394.57v33.28H431.8v4.52H394.57V243.6H431.8v4.51H390.06v-79Z"/><path d="M484.27,175.12l21.32,51.67,1.92,4.51,6.88,16.81h-4.85l-7-16.81h-41.4l-7,16.81h-4.85l6.88-16.81,1.92-4.51,21.33-51.67,2.36-6Zm-21.33,51.67h37.8l-19-45.81Z"/><path d="M536.28,169.14H558.5a21.19,21.19,0,0,1,16.36,34.41,20.32,20.32,0,0,1-11.62,7.33l19.63,37.23H577.8l-19.3-36.66H536.28v36.66h-4.52v-79Zm0,37.79h19.85l5-.22a16.27,16.27,0,0,0,9.93-5.64A15.82,15.82,0,0,0,575,190.35a16.06,16.06,0,0,0-4.85-11.85,15.19,15.19,0,0,0-11.62-4.85H536.28Z"/><path d="M651.69,169.14v79l-4.51-6.32-42.42-58.66v65h-4.51v-79l4.51,6.2,42.42,58.78v-65Z"/><path d="M673.58,169.14v79h-4.51v-79Z"/><path d="M742.51,169.14v79L738,241.79l-42.42-58.66v65h-4.51v-79l4.51,6.2L738,234.12v-65Z"/><path d="M818.55,177l-2.93,3.5a29.19,29.19,0,0,0-19.07-6.88c-8.8,0-16.47,3.38-22.79,10.27s-9.36,15-9.36,24.71a35.05,35.05,0,0,0,9.48,24.7c6.32,6.77,13.87,10.27,22.67,10.27a29.89,29.89,0,0,0,13.2-3.16,31.25,31.25,0,0,0,10.84-8.69v-20.3h-28.1v-4.52H825.1v26.4a37.29,37.29,0,0,1-12.75,10.95,33.38,33.38,0,0,1-15.8,3.83,34.57,34.57,0,0,1-18.5-5.3,39.08,39.08,0,0,1-13.31-14.44,42.42,42.42,0,0,1,.11-39.6,38,38,0,0,1,13.31-14.33,33.27,33.27,0,0,1,18.39-5.3A34,34,0,0,1,818.55,177Z"/><g class="cls-2"><polygon class="cls-3" points="288 224.15 239 252.54 190 224.15 190 167.38 239 139 288 167.38 288 224.15"/><polygon class="cls-4" points="184 42.18 134 70.56 134 127.33 184 155.72 234 127.33 234 70.56 184 42.18"/><polygon class="cls-3" points="245.01 127.31 296 155.71 347.01 127.34 347.04 70.57 296.05 42.17 245.03 70.53 245.01 127.31"/><polygon class="cls-3" points="266 44.31 240.5 59.09 215 44.31 215 14.77 240.5 0 266 14.77 266 44.31"/><polygon class="cls-3" points="154 183.31 128.5 198.09 103 183.31 103 153.77 128.5 139 154 153.77 154 183.31"/><polygon class="cls-3" points="120 86.31 94.5 101.09 69 86.31 69 56.77 94.5 42 120 56.77 120 86.31"/><polygon class="cls-4" points="88 183.31 62.5 198.09 37 183.31 37 153.77 62.5 139 88 153.77 88 183.31"/><polygon class="cls-4" points="53 116.31 27.5 131.09 2 116.31 2 86.77 27.5 72 53 86.77 53 116.31"/></g><path d="M629.19,82.53v23.33c5.56,8.49,15.77,8.49,28.61,8.49,7.7,0,16.76-.22,22.32-.57a17.8,17.8,0,0,0-1.57,4.85c-4.92.21-12.76.35-19.83.35-14.69,0-24.47,0-31.67-8.84-3.5,3.14-7.28,6.35-10.34,8.77a.94.94,0,0,1-.65,1.14l-2.78-5.28a120.92,120.92,0,0,0,11.27-8.7v-19H614.07V82.53ZM618.56,55.78c4.78,3.07,10.27,7.78,12.77,11.27l-3.78,3.21c-2.35-3.57-7.78-8.42-12.55-11.63ZM639,74.68h12.2c.5-2,1-4.35,1.36-6.49H632.9V64.05h12.91a32,32,0,0,0-5.13-8.27l3.7-1.64A29.21,29.21,0,0,1,650,62.77l-2.64,1.28h15l-1.85-.71A84,84,0,0,0,665.93,54l5.7,1.64c-.21.43-.71.64-1.49.71a78,78,0,0,1-5.5,7.7h14.2v4.14H657.51c-.5,1.93-1.21,4.35-1.93,6.49h17v35.17h-4.78v-2.49H643.67v2.49H639Zm28.75,9.7V78.54H643.67v5.84ZM643.67,88v6h24.11V88Zm0,15.62h24.11V97.51H643.67Z"/><path d="M749.67,101.72v4.07H720.35v9.27c0,5.14-2.14,5.21-14.4,5.21a16.49,16.49,0,0,0-1.65-4.14c2.64.07,5.21.14,7.07.14,3.85,0,4.28,0,4.28-1.35v-9.13H686.33v-4.07h29.32V97.37l3.71.21a56.71,56.71,0,0,0,9-4.92H699.17V89h34.31l.78-.28,3.57,2.42a1.9,1.9,0,0,1-1.07.57,80.5,80.5,0,0,1-16.41,9.06v1ZM692,83.67V92.8h-4.56v-13h5.78l-1.43-22.69,3.85,1a90.29,90.29,0,0,0,9.63-3.49l3.14,3.28a1.32,1.32,0,0,1-1.28.21c-2.64.93-7.06,2.14-10.63,3l.21,3.28h11v3.5H697l.21,4.21h10.84v3.42H697.46l.28,4.28h40.73l.43-4.28H728V72.12h11.2l.35-4.21h-11.2v-3.5h11.42L740,60.2h-12V56.78h16.69c-.36,7.35-1,16.69-1.64,23h5.71v13h-4.71V83.67Zm33.82-27.39c-.14.43-.64.64-1.36.57a39.38,39.38,0,0,1-3.42,3.42,31.61,31.61,0,0,1,4.06,3.29L722.57,66a34.61,34.61,0,0,0-4.21-3.57,44,44,0,0,1-7.07,4.43,26.1,26.1,0,0,0-2.49-2.29,44.17,44.17,0,0,0,6.7-4.06c-1.57-1.07-3.21-2-4.78-2.86l2.5-2.14c1.57.79,3.28,1.79,5,2.79a25.09,25.09,0,0,0,3.29-3.5ZM713.79,67.84a49.16,49.16,0,0,1,4.85,2.85,26.88,26.88,0,0,0,3.71-4l4.35,1.57c-.14.43-.78.57-1.42.5a38.91,38.91,0,0,1-3.78,3.86,35.15,35.15,0,0,1,4.35,3.7l-2.57,2.36a33.26,33.26,0,0,0-4.49-3.85,41.9,41.9,0,0,1-7.21,4.49A26.94,26.94,0,0,0,709,77a45.51,45.51,0,0,0,7-4.21c-1.57-1.07-3.21-2.07-4.71-2.93Z"/><path d="M757,80.32c5-1.64,12.34-4.35,19.62-7.06l.71,3.56c-6.42,2.64-12.91,5.28-17.26,6.92a1.19,1.19,0,0,1-.72,1.14Zm29,1.43c0,4.63-2.35,4.63-11.48,4.63a15.4,15.4,0,0,0-1.36-3.64c1.71,0,3.28.08,4.57.08,3.78,0,3.78,0,3.78-1.15v-20h-22.9v-4h27.39Zm-14.55-9a39.49,39.49,0,0,0-9.56-7.21l2.64-2.85a40.4,40.4,0,0,1,9.63,6.92Zm12.27,17.69a51.1,51.1,0,0,0,3.14-7.13l5.7,1.56c-.14.43-.64.72-1.42.65-.72,1.42-1.72,3.28-2.71,4.92h24.11v30H807.6v-2.92h-36v2.92h-4.71v-30Zm24,11.41V94.37h-36v7.49Zm-36,11.77h36v-7.84h-36Zm38.81-37.95c-6.71,2.57-13.7,5.21-18.26,6.85a1.31,1.31,0,0,1-.72,1.14l-2.35-4.49c5.21-1.71,13-4.43,20.62-7.14Zm7.84-18V81.82c0,4.71-2.49,4.85-12,4.85a13.23,13.23,0,0,0-1.43-3.85c2.07.07,4.07.14,5.5.14,3,0,3.42-.07,3.42-1.21v-20H790.62v-4Zm-22.89,5a38.36,38.36,0,0,1,9.77,6.71l-2.71,3.21c-1.93-2.29-6.14-5.14-9.63-7Z"/></g></g></svg>