<svg xmlns="http://www.w3.org/2000/svg" viewBox="0 0 369.61 76.55"><defs><style>.cls-1{fill:#00a0dd;}</style></defs><g id="Layer_2" data-name="Layer 2"><g id="Bolt"><path class="cls-1" d="M36.86,49.63v6.45A30.65,30.65,0,0,1,22,59.59a23,23,0,0,1-11.63-2.75,20.4,20.4,0,0,1-7.56-7.59A20.65,20.65,0,0,1,0,38.79a20,20,0,0,1,6.37-15,21.89,21.89,0,0,1,15.72-6.09A36.83,36.83,0,0,1,36.42,21v6.29a28.28,28.28,0,0,0-14-4.1,16.21,16.21,0,0,0-11.67,4.44A14.74,14.74,0,0,0,6.06,38.79a14.61,14.61,0,0,0,4.57,11.07A16.32,16.32,0,0,0,22.32,54.2,26.5,26.5,0,0,0,36.86,49.63Z"/><path class="cls-1" d="M62.64,30.47h4.12V46.74a19.36,19.36,0,0,1-.48,5,10.91,10.91,0,0,1-1.19,2.8,9.12,9.12,0,0,1-1.73,2,13.19,13.19,0,0,1-8.9,2.93,13.29,13.29,0,0,1-9-2.91,9.51,9.51,0,0,1-1.74-2,10.36,10.36,0,0,1-1.16-2.74,20.1,20.1,0,0,1-.47-5.09V30.47h4.13V46.74c0,2.69.3,4.56.92,5.61A6.53,6.53,0,0,0,50,54.89a9.83,9.83,0,0,0,4.45,1,9,9,0,0,0,5.95-1.91,6,6,0,0,0,1.74-2.42,15,15,0,0,0,.53-4.77Z"/><path class="cls-1" d="M72.57,59.12V30.47h7.18a10.35,10.35,0,0,1,6.9,2.16,7.21,7.21,0,0,1,2.55,5.82,7.15,7.15,0,0,1-4.84,7A13,13,0,0,1,87.05,48a50.23,50.23,0,0,1,3.69,5.43q1.5,2.45,2.4,3.67l1.52,2H89.77l-1.24-1.89-.25-.34-.8-1.13-1.27-2.1-1.37-2.23a22.2,22.2,0,0,0-2.33-2.81,8.71,8.71,0,0,0-1.91-1.51,6.54,6.54,0,0,0-2.86-.46H76.67V59.12ZM77.9,34H76.67v9h1.56a11.44,11.44,0,0,0,4.27-.53,4,4,0,0,0,1.81-1.61A4.67,4.67,0,0,0,85,38.41,4.37,4.37,0,0,0,84.24,36a3.88,3.88,0,0,0-2-1.55A14.63,14.63,0,0,0,77.9,34Z"/><path class="cls-1" d="M97.85,30.47H102V59.12H97.85Z"/><path class="cls-1" d="M122.37,30.06a15.39,15.39,0,0,1,11.06,4.21,13.94,13.94,0,0,1,4.41,10.54,13.73,13.73,0,0,1-4.45,10.49,15.84,15.84,0,0,1-11.24,4.15,14.92,14.92,0,0,1-10.79-4.15A13.84,13.84,0,0,1,107,44.89a14.14,14.14,0,0,1,4.35-10.62A15.1,15.1,0,0,1,122.37,30.06Zm.17,3.9A11.1,11.1,0,0,0,114.45,37a10.46,10.46,0,0,0-3.16,7.85,10.31,10.31,0,0,0,3.17,7.71,11.78,11.78,0,0,0,16-.06,10.48,10.48,0,0,0,3.21-7.81,10.23,10.23,0,0,0-3.21-7.66A10.87,10.87,0,0,0,122.54,34Z"/><path class="cls-1" d="M150,47.12l-3.12-1.9a14,14,0,0,1-4.18-3.52,6.7,6.7,0,0,1-1.24-4,7.05,7.05,0,0,1,2.35-5.49,8.78,8.78,0,0,1,6.1-2.12,11.59,11.59,0,0,1,6.59,2v4.65a9.54,9.54,0,0,0-6.67-3,5.57,5.57,0,0,0-3.3.93,2.83,2.83,0,0,0-1.29,2.38,3.61,3.61,0,0,0,1,2.41,11.71,11.71,0,0,0,3.06,2.36l3.13,1.86q5.25,3.14,5.24,8a7.34,7.34,0,0,1-2.3,5.6,8.47,8.47,0,0,1-6,2.15,12.59,12.59,0,0,1-7.73-2.61V51.63c2.21,2.81,4.78,4.21,7.69,4.21a4.88,4.88,0,0,0,3.21-1.07,3.38,3.38,0,0,0,1.28-2.69C153.76,50.34,152.5,48.68,150,47.12Z"/><path class="cls-1" d="M162.17,30.47h4.1V59.12h-4.1Z"/><path class="cls-1" d="M170.19,30.43h23.93v3.65h-10v25H180v-25h-9.82Z"/><path class="cls-1" d="M215.23,30.47h5L209.62,44V59.12h-4.2V44l-10.58-13.5h4.95l7.66,9.88Z"/><path class="cls-1" d="M303.58,18.19h5.86V59.12h-5.86V41.31h-23V59.12h-5.85V18.19h5.85v17.7h23Z"/><path class="cls-1" d="M317.15,30.47h4.1V59.12h-4.1Z"/><path class="cls-1" d="M345.76,30.47h4.08L337.73,59.25h-.93L324.45,30.47h4.13l8.62,20.12Z"/><path class="cls-1" d="M353,30.47h16.24v3.65H357.08v8.74h11.73v3.67H357.08v8.9h12.53v3.65H353Z"/><path class="cls-1" d="M244,46.86c-.27,2.57-.52,5-.77,7.48s-.51,4.95-.77,7.42-.5,4.92-.77,7.38c-.29,2.63-.74,7.17-.71,7.41l14-39.27c-1.41.46-2.76,1-4.16,1.4.3-1.06.57-2,.85-3s.55-2,.83-2.92.55-1.95.82-2.92.55-1.93.82-2.89l.84-2.92c.27-1,.55-2,.82-2.93s.56-1.92.83-3l-1.19.34c-.39.12-.78.25-1.17.35a9.68,9.68,0,0,1-1.18.3c.34-1.13.65-2.18,1-3.23l.93-3.17c.32-1.06.63-2.11.94-3.17s.63-2.13,1-3.2l.93-3.16c.31-1,.63-2.08.93-3.19l-.15,0L256.33.5l-2.86.62-2.87.63-3.2.69-3.2.7L241,3.82c-.2.05-.2.06-.23.4l-.21,2.38c-.11,1.32-.22,2.65-.34,4s-.22,2.67-.34,4l-.39,4.55-.39,4.55-.39,4.55c0,.33,0,.66-.08,1l1.88-.75c.61-.23,1.22-.51,1.87-.72L240,48.6Z"/></g></g></svg>